<svg width="180" height="48" viewBox="0 0 180 48" fill="none" xmlns="http://www.w3.org/2000/svg">
<g clip-path="url(#clip0_209_301)">
<path d="M8.80009 40.8745H2.21057C0.990858 40.8745 0 39.8849 0 38.6652V20.9397C0 20.257 0.319632 19.5538 0.83232 19.1038L22.0469 0.549809C22.8767 -0.176394 24.1347 -0.184065 24.976 0.531909L30.1553 4.96072L27.5292 8.03174L23.5351 4.61552L4.03886 21.6647V36.8357H8.80009V40.8745Z" fill="#0D2638"/>
<path d="M50.9058 24.0607V45.7944C50.9058 47.0051 49.9086 48.0011 48.6978 48.0011H8.98804C7.77728 48.0011 6.78003 47.0051 6.78003 45.7944V23.6439C6.78003 22.9573 7.1035 22.2426 7.64176 21.799L27.5433 4.95312L31.0848 7.24169L10.8202 24.3969V43.961H46.8657V24.7869L31.3674 11.5235L34.4563 8.84112L50.0569 22.2004C50.5823 22.6582 50.9058 23.3588 50.9058 24.0594V24.0607Z" fill="#2E97D1"/>
<path d="M28.855 21.9463H24.9453V25.8573H28.855V21.9463Z" fill="#2E97D1"/>
<path d="M33.9321 21.9463H30.0211V25.8573H33.9321V21.9463Z" fill="#2E97D1"/>
<path d="M28.855 27.0977H24.9453V31.0087H28.855V27.0977Z" fill="#2E97D1"/>
<path d="M33.9321 27.0977H30.0211V31.0087H33.9321V27.0977Z" fill="#2E97D1"/>
<path d="M55.474 40.8747H14.3438V36.8358H53.6444V21.6661L34.1482 4.61566L28.8436 9.13909L25.7265 6.48998L26.0922 4.35995L28.1583 4.41365L32.706 0.532047C33.5486 -0.185206 34.8079 -0.177535 35.6377 0.548668L56.8497 19.1014C57.3624 19.5463 57.6846 20.2508 57.6846 20.9373V38.6628C57.6846 39.8825 56.6924 40.8721 55.474 40.8721V40.8747Z" fill="#0D2638"/>
<path d="M81.3488 27.7863H71.32V19.0859H67.3105V39.3148H71.32V30.4725H81.3488V39.3148H85.3582V19.0859H81.3488V27.7863Z" fill="#0D2638"/>
<path d="M107.206 21.8053C106.258 20.886 105.12 20.1675 103.788 19.6446C102.456 19.1217 100.982 18.8608 99.3644 18.8608C97.7471 18.8608 96.2704 19.1204 94.9344 19.6369C93.5983 20.1547 92.454 20.8758 91.5028 21.7976C90.5516 22.722 89.8139 23.8151 89.2909 25.0796C88.768 26.3428 88.5072 27.7159 88.5072 29.199C88.5072 30.6821 88.768 32.0552 89.2909 33.3197C89.8139 34.5829 90.5503 35.676 91.5028 36.6004C92.454 37.5248 93.5983 38.2446 94.9344 38.7611C96.2704 39.2802 97.7471 39.5384 99.3644 39.5384C100.982 39.5384 102.456 39.2802 103.788 38.7611C105.119 38.2446 106.258 37.5248 107.206 36.6004C108.153 35.676 108.887 34.5829 109.41 33.3197C109.933 32.0552 110.194 30.6821 110.194 29.199C110.194 27.7159 109.933 26.3428 109.41 25.0796C108.887 23.8151 108.153 22.7233 107.206 21.8053ZM105.645 32.1869C105.334 33.0691 104.888 33.8145 104.306 34.4256C103.723 35.0368 103.016 35.506 102.182 35.832C101.349 36.158 100.41 36.3217 99.3644 36.3217C98.3186 36.3217 97.3776 36.158 96.5389 35.832C95.7002 35.506 94.988 35.0368 94.4012 34.4256C93.8156 33.8145 93.3643 33.0691 93.0485 32.1869C92.7327 31.3047 92.5742 30.31 92.5742 29.2003C92.5742 28.0905 92.7327 27.0945 93.0485 26.2136C93.3643 25.3315 93.8156 24.5835 94.4012 23.9686C94.988 23.3536 95.7002 22.8818 96.5389 22.5558C97.3776 22.2298 98.3186 22.0661 99.3644 22.0661C100.41 22.0661 101.349 22.2285 102.182 22.5558C103.015 22.8818 103.723 23.3523 104.306 23.9686C104.888 24.5835 105.334 25.3327 105.645 26.2136C105.955 27.0945 106.111 28.0905 106.111 29.2003C106.111 30.31 105.955 31.306 105.645 32.1869Z" fill="#0D2638"/>
<path d="M118.907 19.0859L110.504 39.3161H113.597C113.932 39.3161 114.216 39.2278 114.447 39.0488C114.679 38.8724 114.833 38.6768 114.913 38.462L116.51 34.3349H125.37L126.967 38.462C127.065 38.7049 127.226 38.9069 127.447 39.0706C127.67 39.233 127.952 39.3161 128.299 39.3161H131.375L122.972 19.0859H118.904H118.907ZM117.531 31.6769L120.134 24.9748C120.262 24.6667 120.392 24.3074 120.527 23.897C120.66 23.4866 120.795 23.0443 120.933 22.5686C121.071 23.0443 121.212 23.4841 121.355 23.8906C121.498 24.2959 121.629 24.6488 121.748 24.9467L124.351 31.6769H117.531Z" fill="#0D2638"/>
<path d="M137.559 19.0859H133.579V39.3148H146.124V36.208H137.559V19.0859Z" fill="#2E97D1"/>
<path d="M152.56 24.9609H148.906V39.3162H152.56V24.9609Z" fill="#2E97D1"/>
<path d="M152.404 19.21C152.192 19.0144 151.943 18.8584 151.657 18.7421C151.371 18.6257 151.066 18.5669 150.741 18.5669C150.416 18.5669 150.127 18.6244 149.845 18.7421C149.563 18.8584 149.32 19.0157 149.113 19.21C148.906 19.4056 148.741 19.6383 148.617 19.9093C148.493 20.1804 148.432 20.4693 148.432 20.7775C148.432 21.0856 148.493 21.3566 148.617 21.6162C148.741 21.877 148.906 22.1059 149.113 22.3015C149.32 22.4971 149.565 22.6531 149.845 22.7694C150.126 22.8858 150.424 22.9446 150.741 22.9446C151.058 22.9446 151.371 22.887 151.657 22.7694C151.944 22.6531 152.192 22.4971 152.404 22.3015C152.616 22.1059 152.786 21.877 152.914 21.6162C153.042 21.3554 153.106 21.0754 153.106 20.7775C153.106 20.4796 153.042 20.1804 152.914 19.9093C152.785 19.6383 152.615 19.4056 152.404 19.21Z" fill="#2E97D1"/>
<path d="M160.637 19.0988C159.936 19.3404 159.341 19.6907 158.854 20.1484C158.366 20.6061 157.991 21.1597 157.73 21.8131C157.468 22.4664 157.338 23.2028 157.338 24.0236V25.0861H155.075V26.4989C155.075 26.7507 155.162 26.9476 155.335 27.087C155.507 27.2263 155.736 27.3197 156.022 27.367L157.339 27.5626V39.3148H160.993V27.5473H164.825V25.0861H160.876V24.1349C160.876 23.603 160.937 23.1568 161.061 22.7988C161.184 22.4395 161.364 22.1506 161.601 21.9307C161.837 21.7121 162.126 21.5574 162.466 21.4691C162.806 21.3809 163.194 21.3362 163.627 21.3362C163.953 21.3362 164.239 21.3042 164.486 21.2377C164.732 21.1738 164.866 21.0063 164.885 20.7353L164.959 18.999C164.357 18.8226 163.706 18.7344 163.007 18.7344C162.129 18.7344 161.34 18.8558 160.64 19.0975L160.637 19.0988Z" fill="#2E97D1"/>
<path d="M179.467 32.5092C179.575 32.467 179.662 32.3967 179.725 32.2995C179.79 32.2023 179.834 32.0655 179.859 31.8929C179.883 31.7216 179.896 31.5042 179.896 31.2434C179.896 30.2091 179.734 29.2873 179.409 28.4805C179.083 27.6738 178.629 26.9923 178.048 26.4374C177.466 25.8826 176.773 25.4606 175.97 25.1717C175.166 24.8828 174.286 24.7383 173.33 24.7383C172.196 24.7383 171.178 24.9249 170.274 25.2983C169.373 25.6716 168.607 26.1766 167.982 26.8159C167.355 27.4551 166.874 28.2056 166.539 29.0686C166.203 29.9317 166.036 30.8522 166.036 31.8315C166.036 33.0909 166.228 34.1981 166.612 35.1532C166.997 36.1108 167.524 36.9124 168.195 37.5606C168.866 38.2088 169.655 38.6985 170.562 39.0296C171.47 39.3608 172.45 39.527 173.505 39.527C174.038 39.527 174.588 39.4886 175.155 39.4145C175.722 39.339 176.279 39.2125 176.827 39.0296C177.374 38.8468 177.899 38.6039 178.402 38.3022C178.904 37.9979 179.358 37.6233 179.763 37.1758L178.697 35.9164C178.618 35.8129 178.524 35.7336 178.416 35.6773C178.307 35.6224 178.179 35.5942 178.031 35.5942C177.803 35.5942 177.569 35.6582 177.328 35.7899C177.086 35.9203 176.805 36.066 176.485 36.2246C176.166 36.3831 175.791 36.5288 175.361 36.6567C174.932 36.7884 174.422 36.8536 173.83 36.8536C172.627 36.8536 171.66 36.5071 170.93 35.818C170.2 35.1301 169.781 34.0472 169.672 32.5731H179.051C179.219 32.5731 179.357 32.5526 179.465 32.5104L179.467 32.5092ZM170.902 28.0663C171.503 27.4973 172.336 27.2135 173.401 27.2135C173.943 27.2135 174.417 27.3004 174.822 27.4718C175.226 27.6444 175.562 27.8796 175.828 28.1775C176.094 28.4767 176.291 28.8232 176.42 29.2208C176.521 29.534 176.571 29.869 176.593 30.2168H169.81C169.998 29.3065 170.356 28.5828 170.903 28.0663H170.902Z" fill="#2E97D1"/>
</g>
<defs>
<clipPath id="clip0_209_301">
<rect width="179.895" height="47.9997" fill="white"/>
</clipPath>
</defs>
</svg>
